# xmcd
#
# Track frame offsets:
#	150
#	21765
#	54750
#	74162
#	82625
#	85140
#	129057
#	141937
#	166130
#	179907
#	200607
#	224752
#	250502
#	268545
#	276942
#	293217
#	311065
#
# Disc length: 4528
#
# Revision: 2
# Processed by: cddbd v1.5.1PL0 Copyright (c) Steve Scherf et al.
# Submitted via: CDWizzard Release:4.12
# Normalized: r1:DSETVAR1,TDELIM( - )
#
DISCID=fb11ae11
DTITLE=Various Artist - Pine Ridge (Songs For Leonard Peltier)
DYEAR=1900
DGENRE=
TTITLE0=Sarah McLachlan - Unchained Melody
TTITLE1=Jane Siberry - My Mother Is Not The White Dove
TTITLE2=The Tragically Hip - Flamenco
TTITLE3=Michael Ondaatje - In The Skin Of The Lion (Part 1)
TTITLE4=Tamara Williamson of Mrs. Torrance - Let Him Out!
TTITLE5=Greg Keelor - Pine Ridge
TTITLE6=Ashley MacIsaac - King Of The Fairies
TTITLE7=Bob Wiseman - Response Of A Lakota Woman...
TTITLE8=Ursula - The Only One
TTITLE9=Michael Ondaatje - In The Skin Of The Lion (Part 2)
TTITLE10=Anne Bourne - Robin's Egg Blue (What's That Love?)
TTITLE11=Jim Cuddy - Smoking Gun
TTITLE12=The Skydiggers - St. Dunstan's One Request
TTITLE13=Change Of Heart - Moon Over Pluto
TTITLE14=Molly Johnson - Many Rivers To Cross
TTITLE15=John Borra - Ballad Of The Girl
TTITLE16=Michelle McAdorey - Not Vanishing
EXTD=
EXTT0=
EXTT1=
EXTT2=
EXTT3=
EXTT4=
EXTT5=
EXTT6=
EXTT7=
EXTT8=
EXTT9=
EXTT10=
EXTT11=
EXTT12=
EXTT13=
EXTT14=
EXTT15=
EXTT16=
PLAYORDER=
